<svg xmlns="http://www.w3.org/2000/svg" viewBox="0 0 600 450" width="600" height="450" role="img" aria-label="Elegant Rose theme preview">
  <defs>
    <linearGradient id="er-bg" x1="0" y1="0" x2="0" y2="1">
      <stop offset="0" stop-color="#fbeee9"/>
      <stop offset="1" stop-color="#f3ddd4"/>
    </linearGradient>
    <radialGradient id="er-petal" cx="0.35" cy="0.3" r="0.8">
      <stop offset="0" stop-color="#e7a497"/>
      <stop offset="1" stop-color="#c8756a"/>
    </radialGradient>
  </defs>

  <rect width="600" height="450" fill="url(#er-bg)"/>
  <rect x="28" y="28" width="544" height="394" fill="none" stroke="#c8756a" stroke-width="1" opacity="0.55"/>

  <!-- top-left rose cluster -->
  <g transform="translate(70 70)">
    <circle r="26" fill="url(#er-petal)"/>
    <g fill="none" stroke="#a85549" stroke-width="1.2" opacity="0.7">
      <path d="M-26 0 A26 26 0 0 1 26 0"/>
      <path d="M-16 -8 A16 16 0 0 1 16 -8"/>
      <path d="M-8 -3 A8 8 0 0 1 8 -3"/>
    </g>
    <path d="M22 14 q22 6 30 30" fill="none" stroke="#8b4a42" stroke-width="1.4"/>
    <path d="M30 30 q-2 -16 12 -22" fill="#8aa06b" opacity="0.85"/>
    <path d="M40 40 q2 -14 16 -16" fill="#8aa06b" opacity="0.7"/>
  </g>

  <!-- bottom-right rose cluster -->
  <g transform="translate(530 380) rotate(180)">
    <circle r="22" fill="url(#er-petal)"/>
    <g fill="none" stroke="#a85549" stroke-width="1.1" opacity="0.7">
      <path d="M-22 0 A22 22 0 0 1 22 0"/>
      <path d="M-13 -6 A13 13 0 0 1 13 -6"/>
    </g>
    <path d="M30 30 q-2 -16 12 -22" fill="#8aa06b" opacity="0.8"/>
  </g>

  <text x="300" y="138" text-anchor="middle" font-family="Georgia, serif" font-size="14" letter-spacing="6" fill="#a85549">SAVE THE DATE</text>

  <text x="300" y="210" text-anchor="middle" font-family="Georgia, serif" font-style="italic" font-size="52" fill="#8b4a42">Anya</text>
  <text x="300" y="248" text-anchor="middle" font-family="Georgia, serif" font-size="22" fill="#c8756a">&amp;</text>
  <text x="300" y="298" text-anchor="middle" font-family="Georgia, serif" font-style="italic" font-size="52" fill="#8b4a42">Bima</text>

  <g stroke="#c8756a" stroke-width="1" opacity="0.7">
    <line x1="210" y1="330" x2="390" y2="330"/>
  </g>
  <text x="300" y="362" text-anchor="middle" font-family="Georgia, serif" font-size="17" letter-spacing="3" fill="#7a4a40">Elegant Rose</text>
  <text x="300" y="390" text-anchor="middle" font-family="Georgia, serif" font-size="12" letter-spacing="3" fill="#a07a72">12 DESEMBER 2026</text>
</svg>
